<svg xmlns="http://www.w3.org/2000/svg" viewBox="0 0 64 64" fill="none">
  <rect width="64" height="64" rx="12" fill="#1E3A8A"/>
  <path d="M32 16L35 22H29L32 16Z" fill="#F97316"/>
  <path d="M32 16C37.5 16 42 20.5 42 26C42 28.5 41 30.8 39.5 32.5L43 36C44 37 44 38.5 43 39.5L39.5 43C38.5 44 37 44 36 43L32.5 39.5C30.8 41 28.5 42 26 42C20.5 42 16 37.5 16 32C16 26.5 20.5 22 26 22" stroke="#F97316" stroke-width="3" stroke-linecap="round" fill="none"/>
  <circle cx="26" cy="32" r="4" fill="#F97316"/>
  <path d="M42 42L48 48" stroke="#F97316" stroke-width="3" stroke-linecap="round"/>
</svg>
